<svg width="243" height="27" viewBox="0 0 243 27" fill="none" xmlns="http://www.w3.org/2000/svg">
<path d="M0.383972 26V0.800002H4.23597L15.252 19.196H13.236L24.072 0.800002H27.924L27.96 26H23.532L23.496 7.748H24.432L15.216 23.12H13.128L3.76797 7.748H4.84797V26H0.383972Z" fill="black"/>
<path d="M36.5668 26V0.800002H46.9348C49.1668 0.800002 51.0748 1.16 52.6588 1.88C54.2668 2.6 55.5028 3.632 56.3668 4.976C57.2308 6.32 57.6628 7.916 57.6628 9.764C57.6628 11.612 57.2308 13.208 56.3668 14.552C55.5028 15.872 54.2668 16.892 52.6588 17.612C51.0748 18.308 49.1668 18.656 46.9348 18.656H39.1588L41.2468 16.532V26H36.5668ZM53.0548 26L46.6828 16.856H51.6868L58.0948 26H53.0548ZM41.2468 17.036L39.1588 14.804H46.7188C48.7828 14.804 50.3308 14.36 51.3628 13.472C52.4188 12.584 52.9468 11.348 52.9468 9.764C52.9468 8.156 52.4188 6.92 51.3628 6.056C50.3308 5.192 48.7828 4.76 46.7188 4.76H39.1588L41.2468 2.456V17.036Z" fill="black"/>
<path d="M76.448 26V0.800002H80.3L91.316 19.196H89.3L100.136 0.800002H103.988L104.024 26H99.596L99.56 7.748H100.496L91.28 23.12H89.192L79.832 7.748H80.912V26H76.448Z" fill="black"/>
<path d="M109.067 26L120.407 0.800002H125.015L136.391 26H131.495L121.739 3.284H123.611L113.891 26H109.067ZM114.287 20.168L115.547 16.496H129.155L130.415 20.168H114.287Z" fill="black"/>
<path d="M141.396 26V0.800002H146.076V22.04H159.252V26H141.396Z" fill="black"/>
<path d="M169.03 12.392H181.594V16.352H169.03V12.392ZM169.426 26H164.746V0.800002H183.142V4.724H169.426V26Z" fill="black"/>
<path d="M200.995 26.36C199.027 26.36 197.215 26.036 195.559 25.388C193.903 24.74 192.463 23.84 191.239 22.688C190.015 21.512 189.067 20.144 188.395 18.584C187.723 17 187.387 15.272 187.387 13.4C187.387 11.528 187.723 9.812 188.395 8.252C189.067 6.668 190.015 5.3 191.239 4.148C192.463 2.972 193.903 2.06 195.559 1.412C197.215 0.764003 199.015 0.440002 200.959 0.440002C202.927 0.440002 204.727 0.764003 206.359 1.412C208.015 2.06 209.455 2.972 210.679 4.148C211.903 5.3 212.851 6.668 213.523 8.252C214.195 9.812 214.531 11.528 214.531 13.4C214.531 15.272 214.195 17 213.523 18.584C212.851 20.168 211.903 21.536 210.679 22.688C209.455 23.84 208.015 24.74 206.359 25.388C204.727 26.036 202.939 26.36 200.995 26.36ZM200.959 22.256C202.231 22.256 203.407 22.04 204.487 21.608C205.567 21.176 206.503 20.564 207.295 19.772C208.087 18.956 208.699 18.02 209.131 16.964C209.587 15.884 209.815 14.696 209.815 13.4C209.815 12.104 209.587 10.928 209.131 9.872C208.699 8.792 208.087 7.856 207.295 7.064C206.503 6.248 205.567 5.624 204.487 5.192C203.407 4.76 202.231 4.544 200.959 4.544C199.687 4.544 198.511 4.76 197.431 5.192C196.375 5.624 195.439 6.248 194.623 7.064C193.831 7.856 193.207 8.792 192.751 9.872C192.319 10.928 192.103 12.104 192.103 13.4C192.103 14.672 192.319 15.848 192.751 16.928C193.207 18.008 193.831 18.956 194.623 19.772C195.415 20.564 196.351 21.176 197.431 21.608C198.511 22.04 199.687 22.256 200.959 22.256Z" fill="black"/>
<path d="M221.292 26V0.800002H231.66C233.892 0.800002 235.8 1.16 237.384 1.88C238.992 2.6 240.228 3.632 241.092 4.976C241.956 6.32 242.388 7.916 242.388 9.764C242.388 11.612 241.956 13.208 241.092 14.552C240.228 15.872 238.992 16.892 237.384 17.612C235.8 18.308 233.892 18.656 231.66 18.656H223.884L225.972 16.532V26H221.292ZM237.78 26L231.408 16.856H236.412L242.82 26H237.78ZM225.972 17.036L223.884 14.804H231.444C233.508 14.804 235.056 14.36 236.088 13.472C237.144 12.584 237.672 11.348 237.672 9.764C237.672 8.156 237.144 6.92 236.088 6.056C235.056 5.192 233.508 4.76 231.444 4.76H223.884L225.972 2.456V17.036Z" fill="black"/>
</svg>
